<?xml version="1.0"?>
<svg width="500" height="500" xmlns="http://www.w3.org/2000/svg" xmlns:svg="http://www.w3.org/2000/svg" version="1.1">
 <g class="layer">
  <title>Layer 1</title>
  <path d="m0,0c165,0 330,0 500,0c0,165 0,330 0,500c-165,0 -330,0 -500,0c0,-165 0,-330 0,-500z" fill="#f0fdf4" id="svg_1"/>
  <path d="m304.74,145.12c16.55,14.05 28.97,36.16 31.26,57.88c1.19,23.74 -2.86,45.37 -18.96,63.62c-12.84,14.14 -27.61,24.98 -46.67,28.63c-0.87,0.17 -1.74,0.34 -2.63,0.51c-21.61,3.92 -43.07,-0.23 -61.74,-11.76c-3.14,-2.18 -6.08,-4.53 -9,-7c-0.65,-0.51 -1.31,-1.02 -1.98,-1.54c-14.58,-11.79 -23.55,-29.54 -28.02,-47.46c-0.19,-0.74 -0.38,-1.49 -0.58,-2.25c-2.07,-13.48 -0.65,-26.89 3.58,-39.75c0.37,-1.14 0.75,-2.28 1.13,-3.45c8.04,-22.48 23.46,-39.78 45.02,-50.06c30.4,-12.6 62.89,-7.25 88.59,12.63z" fill="#2C3A26" id="svg_2" transform="matrix(1 0 0 1 0 0)"/>
  <path d="m243,204c3.98,1.96 7.44,4.38 11,7c0.99,0.62 1.98,1.23 3,1.87c3.08,2.2 5.03,3.88 7,7.13c0.38,5.19 -0.38,9.79 -1.52,14.84c-0.46,2.05 -0.81,4.09 -1.14,6.16c-2.01,11.41 -2.01,11.41 -5.44,14.76c-6.75,4.42 -15.24,8.46 -23.47,7.89c-5.15,-1.38 -9.21,-4.51 -13.43,-7.65c-0.85,-0.59 -1.71,-1.17 -2.59,-1.78c-4.88,-3.48 -7.88,-6.2 -9.41,-12.22c-0.81,-7.96 0.09,-16.11 3.62,-23.31c3.11,-3.51 6.28,-5.48 10.38,-7.69c1.11,-0.62 2.21,-1.23 3.35,-1.87c12.2,-6.61 12.2,-6.61 18.65,-5.13z" fill="#ffffff" id="svg_3" transform="matrix(1 0 0 1 0 0)"/>
  <path d="m297.96,205.86c2.08,1.07 4.09,2.21 6.1,3.39c0.69,0.39 1.37,0.77 2.07,1.16c1.99,1.15 3.94,2.35 5.87,3.59c0.91,0.55 0.91,0.55 1.83,1.1c2.36,1.61 4,3.03 4.58,5.89c0.03,2.36 -0.14,4.61 -0.41,6.95c-0.08,1.18 -0.08,1.18 -0.17,2.38c-0.71,8.23 -2.89,14.79 -8.83,20.68c-4.21,3.24 -8.7,6.07 -13.21,8.86c-1.71,1.09 -3.37,2.26 -5.02,3.44c-3.13,1.92 -4.97,2.06 -8.56,1.37c-4.38,-1.33 -8.26,-3.38 -12.21,-5.67c-0.81,-0.42 -1.61,-0.84 -2.45,-1.27c-2.32,-1.4 -3.91,-2.57 -5.55,-4.73c-0.67,-3.78 0.28,-7.26 1,-11c0.2,-1.63 0.38,-3.27 0.56,-4.91c0.21,-1.78 0.42,-3.56 0.63,-5.34c0.09,-0.85 0.18,-1.7 0.27,-2.58c1.05,-7.76 4.44,-11.57 10.32,-16.5c0.9,-0.63 1.8,-1.26 2.72,-1.92c0.9,-0.64 1.8,-1.29 2.72,-1.95c6.32,-4.08 10.39,-6.16 17.74,-2.94z" fill="#ffffff" id="svg_4" transform="matrix(1 0 0 1 0 0)"/>
  <path d="m230,149c7.26,4.04 13.35,12.7 17,20c-0.24,3.04 -0.56,5.99 -1,9c-0.12,0.82 -0.23,1.65 -0.36,2.49c-1.31,7.75 -3.11,15.42 -9.21,20.76c-17.04,11.64 -17.04,11.64 -25.52,10.71c-3.74,-1.23 -5.35,-2.99 -7.91,-5.96c-0.85,-0.83 -1.69,-1.65 -2.56,-2.5c-4.33,-4.44 -6.86,-7.2 -7.44,-13.5c2.27,-12.54 8.49,-27.32 19,-35c11.12,-6.8 11.12,-6.8 18,-6z" fill="#ffffff" id="svg_5" transform="matrix(1 0 0 1 0 0)"/>
  <path d="m295,148c8.68,0.36 13.62,5.38 19.5,11.38c8.77,10.06 14.15,23.04 16,36.18c-1.02,6.99 -4.81,13.23 -9.5,18.44c-5.08,-0.53 -9.03,-2.3 -13.44,-4.75c-0.66,-0.37 -1.32,-0.74 -2.01,-1.11c-1.29,-0.73 -2.58,-1.46 -3.86,-2.19c-1.33,-0.75 -2.68,-1.45 -4.05,-2.13c-6.22,-3.53 -7.62,-10.36 -9.64,-16.82c-0.39,-1.21 -0.79,-2.43 -1.2,-3.68c-4.52,-14.72 -4.52,-14.72 -1.62,-20.78c1.5,-2.6 3.11,-5.07 4.82,-7.54c0.75,-1.08 0.75,-1.08 1.51,-2.19c1.14,-1.62 2.31,-3.22 3.49,-4.81z" fill="#ffffff" id="svg_6" transform="matrix(1 0 0 1 0 0)"/>
  <path d="m276.38,133.17c6.4,2.55 11.69,4.94 15.62,10.83c-0.34,3.97 -1.86,7.03 -3.75,10.5c-0.49,0.92 -0.98,1.83 -1.48,2.78c-2.98,4.58 -5.08,7.3 -10.52,8.64c-1.41,0.16 -2.83,0.29 -4.25,0.39c-0.75,0.06 -1.5,0.13 -2.27,0.19c-1.52,0.13 -3.04,0.24 -4.56,0.34c-1.96,0.14 -3.91,0.38 -5.86,0.62c-4.75,0.41 -7.91,0.58 -11.83,-2.34c-2.38,-2.59 -4.42,-5.28 -6.48,-8.12c-0.78,-0.89 -1.56,-1.77 -2.36,-2.68c-5.67,-6.44 -5.67,-6.44 -5.55,-10.36c1.78,-5.79 6.27,-9.43 10.6,-13.46c9.95,-4.51 22.85,-0.74 32.69,2.67z" fill="#ffffff" id="svg_7" transform="matrix(1 0 0 1 0 0)"/>
  <path d="m0,0c1.38,0 1.38,0 2.8,0c1.59,0 1.59,0 3.21,0c1.18,0 2.36,0 3.58,0c1.24,0 2.48,0 3.76,0c3.47,0 6.93,0 10.39,0.01c3.73,0 7.46,0 11.19,0c6.47,0 12.94,0 19.4,0.01c9.35,0.01 18.7,0.01 28.05,0.01c15.17,0 30.34,0.01 45.5,0.02c14.74,0.01 29.48,0.02 44.22,0.02c1.36,0 1.36,0 2.75,0c4.55,0 9.11,0 13.66,0c37.81,0.01 75.61,0.03 113.42,0.05c0.33,1.65 0.66,3.3 1,5c-100.65,0 -201.3,0 -305,0c-0.33,-1.32 -0.66,-2.64 -1,-4c1,-1 1,-1 3.07,-1.12z" fill="#2E3C27" id="svg_8" transform="translate(101.07345539331436,420.8758015036583)"/>
  <path d="m0,0c1.39,0 1.39,0 2.81,0c1.06,0 2.13,0 3.22,0c1.19,0 2.37,0 3.59,0c1.25,0 2.49,0 3.78,0c3.47,0 6.95,0 10.42,0.01c3.74,0 7.49,0 11.23,0c6.48,0 12.97,0 19.46,0.01c9.38,0.01 18.76,0.01 28.14,0.01c15.22,0 30.44,0.01 45.66,0.02c14.78,0.01 29.57,0.02 44.36,0.02c1.36,0 1.36,0 2.75,0c4.57,0 9.14,0 13.71,0c37.93,0.01 75.86,0.03 113.79,0.05c-0.33,1.65 -0.66,3.3 -1,5c-100.32,0 -200.64,0 -304,0c-0.33,-1.32 -0.66,-2.64 -1,-4c1,-1 1,-1 3.08,-1.12z" fill="#2E3C27" id="svg_9" transform="translate(101.07986742258072,316.8758015036583)"/>
  <path d="m0,0c15.89,0 15.89,0 20,4c3.16,3.39 3.41,5.85 3.38,10.44c0,1.11 0.01,2.22 0.02,3.37c-0.44,3.48 -1.51,5.28 -3.4,8.19c-0.29,3.17 -0.29,3.17 2,5.88c3.15,5.29 2.74,11.17 2,17.12c-1.68,5.26 -4.17,7.1 -9,10c-4.95,0 -9.9,0 -15,0c0,-19.47 0,-38.94 0,-59z" fill="#2C3A26" id="svg_10" transform="translate(97,343)"/>
  <path d="m0,0c3.34,2.75 5.49,4.95 6.1,9.38c0.13,2.54 0.15,5.07 0.15,7.62c0,0.93 0.01,1.86 0.01,2.82c0.01,1.97 0.01,3.94 0,5.91c-0.01,3.01 0.02,6.01 0.05,9.01c0,1.92 0,3.84 0,5.76c0.02,1.34 0.02,1.34 0.03,2.7c-0.06,5.53 -0.83,8.74 -4.53,13.11c-2.74,2.17 -4.48,2.93 -7.94,3.44c-3.95,-0.57 -6.01,-1.88 -9.06,-4.44c-2.66,-4.68 -2.32,-9.66 -2.33,-14.9c-0.01,-0.96 -0.02,-1.91 -0.02,-2.89c-0.01,-2.02 -0.02,-4.04 -0.02,-6.05c0,-3.08 -0.04,-6.16 -0.08,-9.23c0,-1.97 -0.01,-3.93 -0.01,-5.89c-0.01,-0.92 -0.03,-1.83 -0.04,-2.78c0.04,-5.73 0.76,-8.85 4.5,-13.26c4.32,-3.17 8.6,-2.74 13.19,-0.31z" fill="#2C3A26" id="svg_11" transform="translate(265.1875,343.6875)"/>
  <path d="m0,0c3.34,2.75 5.49,4.95 6.1,9.38c0.13,2.54 0.15,5.07 0.15,7.62c0,0.93 0.01,1.86 0.01,2.82c0.01,1.97 0.01,3.94 0,5.91c-0.01,3.01 0.02,6.01 0.05,9.01c0,1.92 0,3.84 0,5.76c0.02,1.34 0.02,1.34 0.03,2.7c-0.06,5.53 -0.83,8.74 -4.53,13.11c-2.74,2.17 -4.48,2.93 -7.94,3.44c-3.95,-0.57 -6.01,-1.88 -9.06,-4.44c-2.66,-4.68 -2.32,-9.66 -2.33,-14.9c-0.01,-0.96 -0.02,-1.91 -0.02,-2.89c-0.01,-2.02 -0.02,-4.04 -0.02,-6.05c0,-3.08 -0.04,-6.16 -0.08,-9.23c0,-1.97 -0.01,-3.93 -0.01,-5.89c-0.01,-0.92 -0.03,-1.83 -0.04,-2.78c0.04,-5.73 0.76,-8.85 4.5,-13.26c4.32,-3.17 8.6,-2.74 13.19,-0.31z" fill="#2C3A26" id="svg_12" transform="translate(143.1875,343.6875)"/>
  <path d="m0,0c2.64,0 5.28,0 8,0c2.54,6.4 4.42,12.86 6.19,19.5c0.93,3.46 1.85,6.93 2.81,10.5c0.33,-9.9 0.66,-19.8 1,-30c2.64,0 5.28,0 8,0c0,19.47 0,38.94 0,59c-2.64,0 -5.28,0 -8,0c-0.75,-2.52 -1.5,-5.04 -2.25,-7.56c-0.2,-0.69 -0.41,-1.37 -0.62,-2.08c-2.2,-7.42 -4.13,-14.87 -6.13,-22.36c-0.33,10.56 -0.66,21.12 -1,32c-2.64,0 -5.28,0 -8,0c0,-19.47 0,-38.94 0,-59z" fill="#2D3B27" id="svg_13" transform="translate(435,343)"/>
  <path d="m0,0c2.64,0 5.28,0 8,0c2.54,6.4 4.42,12.86 6.19,19.5c0.93,3.46 1.85,6.93 2.81,10.5c0.33,-9.9 0.66,-19.8 1,-30c2.64,0 5.28,0 8,0c0,19.47 0,38.94 0,59c-2.64,0 -5.28,0 -8,0c-0.75,-2.52 -1.5,-5.04 -2.25,-7.56c-0.2,-0.69 -0.41,-1.37 -0.62,-2.08c-2.2,-7.42 -4.13,-14.87 -6.13,-22.36c-0.33,10.56 -0.66,21.12 -1,32c-2.64,0 -5.28,0 -8,0c0,-19.47 0,-38.94 0,-59z" fill="#2D3B27" id="svg_14" transform="translate(388,343)"/>
  <path d="m0,0c15.24,0 15.24,0 20,3c4.37,5.68 4.63,12.06 4,19c-0.77,2.54 -1.78,4.61 -3,7c-1.09,3.26 -0.91,4.39 -0.22,7.68c0.18,0.91 0.36,1.82 0.55,2.76c0.2,0.94 0.4,1.89 0.61,2.87c2.36,11.33 2.36,11.33 2.06,16.69c-2.64,0 -5.28,0 -8,0c-0.68,-3.04 -1.34,-6.08 -2,-9.12c-0.19,-0.86 -0.38,-1.72 -0.58,-2.6c-0.97,-4.51 -1.66,-8.64 -1.42,-13.28c-0.99,0 -1.98,0 -3,0c0,8.25 0,16.5 0,25c-2.97,0 -5.94,0 -9,0c0,-19.47 0,-38.94 0,-59z" fill="#2D3B27" id="svg_15" transform="translate(314,343)"/>
  <path d="m206,248c2.27,1.6 4.13,3.11 6.13,5c4.25,3.85 8.42,7.09 13.37,10.06c5.69,3.67 8.58,7.44 10.5,13.94c0.56,3.88 0.56,3.88 0,7c-2.04,2.58 -3.31,3.83 -6.52,4.64c-13.7,0.24 -23.81,-7.18 -33.64,-15.89c-7.63,-7.38 -7.63,-7.38 -8.33,-11.96c0.06,-1.05 0.12,-2.09 0.18,-3.16c0.04,-1.06 0.09,-2.12 0.13,-3.22c0.06,-0.79 0.12,-1.59 0.18,-2.41c1.87,-0.68 3.75,-1.34 5.62,-2c1.05,-0.37 2.09,-0.74 3.17,-1.12c3.41,-0.93 5.71,-1.39 9.21,-0.88z" fill="#ffffff" id="svg_16" transform="matrix(1 0 0 1 0 0)"/>
  <path d="m219,343c14.97,0 14.97,0 19,3c4.86,5.12 5.32,9.59 5.3,16.42c-0.32,2.72 -1,4.29 -2.36,6.64c-2.59,4.64 -1.97,7.86 -0.94,12.94c0.39,2.05 0.77,4.09 1.15,6.14c0.27,1.43 0.55,2.85 0.83,4.28c0.65,3.29 1.02,6.2 1.02,9.58c-2.97,0 -5.94,0 -9,0c-1.32,-8.25 -2.64,-16.5 -4,-25c-0.66,0 -1.32,0 -2,0c0,8.25 0,16.5 0,25c-2.97,0 -5.94,0 -9,0c0,-19.47 0,-38.94 0,-59z" fill="#2C3A26" id="svg_17" transform="matrix(1 0 0 1 0 0)"/>
  <path d="m0,0c1.51,0.02 1.51,0.02 3.06,0.04c1.01,0 2.02,0.01 3.07,0.02c1.17,0.02 1.17,0.02 2.37,0.04c0.12,0.87 0.12,0.87 0.24,1.75c0.65,4.64 1.3,9.28 1.97,13.92c0.12,0.88 0.25,1.77 0.38,2.68c0.55,3.56 1.19,7.1 1.87,10.64c0.79,4.41 1.48,8.83 2.16,13.26c0.14,0.85 0.27,1.7 0.41,2.58c0.73,4.79 1.11,9.33 0.97,14.17c-2.64,0 -5.28,0 -8,0c-0.99,-4.06 -1.09,-7.84 -1,-12c-2.97,0 -5.94,0 -9,0c-0.33,3.96 -0.66,7.92 -1,12c-2.97,0 -5.94,0 -9,0c0.59,-6.33 1.32,-12.6 2.31,-18.88c0.95,-6.2 1.87,-12.4 2.74,-18.61c0.26,-1.91 0.26,-1.91 0.54,-3.86c0.35,-2.54 0.7,-5.08 1.05,-7.62c0.24,-1.74 0.24,-1.74 0.49,-3.51c0.21,-1.56 0.21,-1.56 0.43,-3.16c0.59,-3.22 0.63,-3.33 3.94,-3.46z" fill="#2C3A26" id="svg_18" transform="translate(352.50390625,342.90234375)"/>
  <path d="m0,0c2.97,0 5.94,0 9,0c0.33,16.5 0.66,33 1,50c1.98,-0.49 1.98,-0.49 4,-1c0.33,-16.17 0.66,-32.34 1,-49c2.64,0 5.28,0 8,0c0.08,7.15 0.13,14.31 0.16,21.46c0.02,2.43 0.04,4.87 0.07,7.3c0.03,3.5 0.05,7 0.06,10.5c0.02,1.08 0.03,2.17 0.05,3.28c0,5.54 -0.06,9.76 -3.34,14.46c-4.24,2.83 -8.02,2.65 -13,2c-3.65,-2.13 -5.42,-4.14 -7,-8c-0.24,-2.42 -0.24,-2.42 -0.23,-5.14c0,-1.02 0,-2.04 0,-3.09c0.01,-1.09 0.02,-2.19 0.03,-3.32c0.01,-1.12 0.01,-2.25 0.01,-3.41c0.01,-3.6 0.04,-7.19 0.06,-10.79c0.02,-2.44 0.02,-4.88 0.03,-7.32c0.02,-5.97 0.06,-11.95 0.1,-17.93z" fill="#2C3925" id="svg_19" transform="translate(42,343)"/>
  <path d="m484.19,343.69c2.9,2.39 4.2,3.95 5.81,7.31c0.3,3.33 0.3,3.33 0.19,6.82c-0.03,1.16 -0.05,2.32 -0.08,3.51c-0.04,0.88 -0.07,1.77 -0.11,2.67c-2.97,0 -5.94,0 -9,0c-0.33,-3.96 -0.66,-7.92 -1,-12c-1.32,0.33 -2.64,0.66 -4,1c0,13.2 0,26.4 0,40c1.32,0.66 2.64,1.32 4,2c0.33,-4.95 0.66,-9.9 1,-15c-0.99,0 -1.98,0 -3,0c0,-2.64 0,-5.28 0,-8c3.96,0 7.92,0 12,0c0,9.9 0,19.8 0,30c-1.98,0 -3.96,0 -6,0c0,-0.66 0,-1.32 0,-2c-0.68,0.52 -1.36,1.03 -2.06,1.57c-3.84,1.88 -5.85,1.55 -9.94,0.43c-2.87,-2.26 -3.84,-3.51 -5,-7c-0.1,-1.45 -0.16,-2.91 -0.17,-4.37c-0.02,-0.89 -0.03,-1.77 -0.04,-2.67c-0.01,-0.95 -0.02,-1.9 -0.03,-2.88c0,-0.98 -0.01,-1.96 -0.02,-2.97c-0.01,-2.08 -0.02,-4.15 -0.03,-6.23c-0.02,-3.17 -0.06,-6.33 -0.11,-9.5c-0.01,-2.02 -0.02,-4.04 -0.02,-6.05c-0.03,-1.42 -0.03,-1.42 -0.06,-2.86c0.02,-5.82 0.67,-9.01 4.48,-13.47c4.32,-3.17 8.6,-2.74 13.19,-0.31z" fill="#2C3A26" id="svg_20" transform="matrix(1 0 0 1 0 0)"/>
  <path d="m191,343c14,0 14,0 17.63,1.5c4.61,4.85 6.59,9.26 6.87,16c-0.24,6.22 -2.06,10.89 -6.31,15.44c-2.19,1.06 -2.19,1.06 -9.19,2.06c0,7.92 0,15.84 0,24c-2.97,0 -5.94,0 -9,0c0,-19.47 0,-38.94 0,-59z" fill="#2C3A26" id="svg_21" transform="matrix(1 0 0 1 0 0)"/>
  <path d="m195.63,154c3.98,1.68 3.98,1.68 5.38,4c-0.39,5.38 -2.01,9.7 -4.32,14.5c-2.48,5.33 -4.19,10.26 -5.37,16.06c-2.21,9.18 -7.98,15.65 -14.32,22.44c-0.5,0.56 -1.01,1.13 -1.53,1.71c-0.48,0.43 -0.97,0.85 -1.47,1.29c-2.18,-0.31 -2.18,-0.31 -4,-1c-0.69,-17.52 3.85,-31.62 13,-46.44c0.42,-0.67 0.84,-1.35 1.26,-2.04c6.69,-10.52 6.69,-10.52 11.37,-10.52z" fill="#ffffff" id="svg_22" transform="matrix(1 0 0 1 0 0)"/>
  <path d="m0,0c6.93,0 13.86,0 21,0c0,2.97 0,5.94 0,9c-3.96,0 -7.92,0 -12,0c0,4.95 0,9.9 0,15c2.64,0 5.28,0 8,0c0,2.97 0,5.94 0,9c-2.64,0 -5.28,0 -8,0c0,8.58 0,17.16 0,26c-2.97,0 -5.94,0 -9,0c0,-19.47 0,-38.94 0,-59z" fill="#2D3B26" id="svg_23" transform="translate(18,343)"/>
  <path d="m323,248c-0.77,6.8 -3.91,10.7 -8,16c-0.5,0.68 -1.01,1.37 -1.53,2.07c-7.67,9.64 -21.63,19.97 -33.97,21.81c-3.5,0.12 -3.5,0.12 -5.5,-0.88c1.09,-7.43 8.39,-15.08 14.11,-19.62c2.86,-2.11 5.82,-4.05 8.8,-5.99c2.39,-1.59 4.71,-3.25 7.04,-4.93c1.7,-1.22 3.41,-2.43 5.11,-3.65c0.81,-0.59 1.62,-1.18 2.46,-1.78c0.77,-0.54 1.53,-1.08 2.33,-1.64c0.68,-0.48 1.36,-0.97 2.06,-1.47c2.71,-1.2 4.29,-0.73 7.09,0.08z" fill="#ffffff" id="svg_24" transform="matrix(1 0 0 1 0 0)"/>
  <path d="m0,0c8.25,0 16.5,0 25,0c0,2.97 0,5.94 0,9c-2.64,0 -5.28,0 -8,0c0,16.5 0,33 0,50c-2.97,0 -5.94,0 -9,0c0,-16.5 0,-33 0,-50c-2.64,0 -5.28,0 -8,0c0,-2.97 0,-5.94 0,-9z" fill="#2C3A26" id="svg_25" transform="translate(286,343)"/>
  <path d="m0,0c8.25,0 16.5,0 25,0c0,2.97 0,5.94 0,9c-2.64,0 -5.28,0 -8,0c0,16.5 0,33 0,50c-2.97,0 -5.94,0 -9,0c0,-16.5 0,-33 0,-50c-2.64,0 -5.28,0 -8,0c0,-2.97 0,-5.94 0,-9z" fill="#2D3B27" id="svg_26" transform="translate(69,343)"/>
  <path d="m0,0c2.64,0 5.28,0 8,0c0,16.83 0,33.66 0,51c3.96,0 7.92,0 12,0c0,2.64 0,5.28 0,8c-6.6,0 -13.2,0 -20,0c0,-19.47 0,-38.94 0,-59z" fill="#2B3825" id="svg_27" transform="translate(155,343)"/>
  <path d="m0,0c2.97,0 5.94,0 9,0c0,19.47 0,38.94 0,59c-2.97,0 -5.94,0 -9,0c0,-19.47 0,-38.94 0,-59z" fill="#2D3A27" id="svg_28" transform="translate(420,343)"/>
  <path d="m0,0c2.97,0 5.94,0 9,0c0,19.47 0,38.94 0,59c-2.97,0 -5.94,0 -9,0c0,-19.47 0,-38.94 0,-59z" fill="#2E3C27" id="svg_29" transform="translate(373,343)"/>
  <path d="m0,0c1.56,1.99 2.88,3.69 3.78,6.06c1.08,2.17 1.08,2.17 3.6,2.77c0.91,0.14 1.81,0.28 2.75,0.42c1.36,0.22 1.36,0.22 2.75,0.45c0.7,0.1 1.4,0.2 2.12,0.3c-0.43,0.39 -0.87,0.78 -1.31,1.18c-2.7,2.71 -4.52,4.64 -5.09,8.51c0.02,2.46 0.13,4.86 0.4,7.31c-1.36,-0.46 -1.36,-0.46 -2.75,-0.94c-1.07,-0.35 -2.14,-0.7 -3.25,-1.06c-0.68,-0.27 -1.36,-0.54 -2.06,-0.81c-2.92,-0.29 -4.53,1.27 -6.94,2.81c-0.99,0 -1.98,0 -3,0c0.06,-0.66 0.12,-1.33 0.18,-2.01c0.39,-5.99 0.39,-5.99 -2.68,-10.99c-0.82,-0.66 -1.65,-1.32 -2.5,-2c0,-0.66 0,-1.32 0,-2c3.47,-1.16 6.36,-1.07 10,-1c0.29,-0.93 0.58,-1.86 0.87,-2.81c1.13,-3.19 1.13,-3.19 3.13,-6.19z" fill="#2C3A26" id="svg_30" transform="translate(251,78)"/>
  <path d="m258,351c1.32,0.33 2.64,0.66 4,1c0,13.53 0,27.06 0,41c-1.98,0.49 -1.98,0.49 -4,1c-2.63,-2.63 -2.25,-4.54 -2.28,-8.12c0.01,-0.84 0.01,-1.67 0.01,-2.54c0,-0.85 0,-1.71 0,-2.6c0,-1.81 0,-3.63 0.01,-5.44c0.01,-2.79 0,-5.57 -0.01,-8.36c0,-1.76 0,-3.52 0,-5.28c0,-0.84 0,-1.68 -0.01,-2.54c0.05,-5.89 0.05,-5.89 2.28,-8.12z" fill="#ffffff" id="svg_31" transform="matrix(1 0 0 1 0 0)"/>
  <path d="m136,351c1.32,0.33 2.64,0.66 4,1c0,13.53 0,27.06 0,41c-1.98,0.49 -1.98,0.49 -4,1c-2.63,-2.63 -2.25,-4.54 -2.28,-8.12c0.01,-0.84 0.01,-1.67 0.01,-2.54c0,-0.85 0,-1.71 0,-2.6c0,-1.81 0,-3.63 0.01,-5.44c0.01,-2.79 0,-5.57 -0.01,-8.36c0,-1.76 0,-3.52 0,-5.28c0,-0.84 0,-1.68 -0.01,-2.54c0.05,-5.89 0.05,-5.89 2.28,-8.12z" fill="#ffffff" id="svg_32" transform="matrix(1 0 0 1 0 0)"/>
  <path d="m0,0c2.5,2.17 3.44,3.73 4,7c1.42,-0.06 1.42,-0.06 2.88,-0.12c3.12,0.12 3.12,0.12 5.12,2.12c-0.66,0.49 -1.32,0.99 -2,1.5c-2.88,3.6 -2.3,5.97 -2,10.5c-2.76,-0.52 -5.33,-1.11 -8,-2c-1.35,0.63 -2.68,1.3 -4,2c-0.99,0 -1.98,0 -3,0c0.08,-1.24 0.17,-2.48 0.25,-3.75c0.02,-3.33 -0.01,-3.96 -2.25,-6.62c-0.66,-0.54 -1.32,-1.08 -2,-1.63c0,-0.66 0,-1.32 0,-2c2.64,0 5.28,0 8,0c0.31,-0.97 0.62,-1.94 0.94,-2.94c1.06,-3.06 1.06,-3.06 2.06,-4.06z" fill="#2D3B27" id="svg_33" transform="translate(288,84)"/>
  <path d="m0,0c3,3 3,3 4.31,4.63c2.39,1.94 4.68,2.04 7.69,2.37c-1.15,2.47 -2.05,4.05 -4,6c-0.24,1.98 -0.24,1.98 -0.12,4.13c0.04,1.27 0.08,2.55 0.12,3.87c-2.76,-0.52 -5.33,-1.11 -8,-2c-3.15,0.88 -3.15,0.88 -6,2c-0.1,-1.26 -0.21,-2.52 -0.31,-3.81c-0.42,-3.46 -0.96,-4.93 -3.69,-7.19c0,-0.99 0,-1.98 0,-3c2.31,0 4.62,0 7,0c0.31,-0.97 0.62,-1.94 0.94,-2.94c1.06,-3.06 1.06,-3.06 2.06,-4.06z" fill="#2D3C27" id="svg_34" transform="translate(214,84)"/>
  <path d="m250.31,287.75c1.1,0.01 1.1,0.01 2.22,0.01c5.96,0.1 11.67,0.84 17.47,2.24c0,0.66 0,1.32 0,2c-25.46,4.04 -25.46,4.04 -36,0c0,-0.66 0,-1.32 0,-2c5.58,-1.58 10.52,-2.32 16.31,-2.25z" fill="#ffffff" id="svg_35" transform="matrix(1 0 0 1 0 0)"/>
  <path d="m171,218c0.66,0 1.32,0 2,0c0.21,1.04 0.42,2.08 0.63,3.16c3.15,16.58 3.15,16.58 11.37,30.84c0.04,2 0.04,4 0,6c-0.66,0 -1.32,0 -2,0c-13.52,-24.31 -13.52,-24.31 -13,-38c0.33,-0.66 0.66,-1.32 1,-2z" fill="#ffffff" id="svg_36" transform="matrix(1 0 0 1 0 0)"/>
  <path d="m475,353c0.33,0 0.66,0 1,0c0.33,6.6 0.66,13.2 1,20c0.33,0 0.66,0 1,0c0,2.31 0,4.62 0,7c0.99,0 1.98,0 3,0c0.03,2.12 0.05,4.25 0.06,6.38c0.01,1.18 0.03,2.36 0.04,3.58c-0.1,3.04 -0.1,3.04 -1.1,5.04c-3.87,-0.87 -3.87,-0.87 -5,-2c-0.09,-2.96 -0.12,-5.89 -0.1,-8.85c0,-0.88 0.01,-1.77 0.01,-2.68c0,-2.85 0.01,-5.69 0.03,-8.53c0,-1.93 0.01,-3.85 0.01,-5.77c0.01,-4.72 0.03,-9.45 0.05,-14.17z" fill="#ffffff" id="svg_37"/>
  <path d="m323,352c5,1 5,1 6,2c0.15,1.95 0.22,3.92 0.25,5.88c0.03,1.06 0.05,2.13 0.08,3.24c-0.33,2.88 -0.33,2.88 -1.66,4.76c-1.67,1.12 -1.67,1.12 -4.67,1.12c0,-5.61 0,-11.22 0,-17z" fill="#ffffff" id="svg_38" transform="matrix(1 0 0 1 0 0)"/>
  <path d="m200,352c2.48,0.49 2.48,0.49 5,1c1.29,2.59 1.17,4.55 1.19,7.44c0.01,0.97 0.03,1.93 0.04,2.93c-0.23,2.63 -0.23,2.63 -2.23,5.63c-1.32,0 -2.64,0 -4,0c0,-5.61 0,-11.22 0,-17z" fill="#ffffff" id="svg_39" transform="matrix(1 0 0 1 0 0)"/>
  <path d="m106,376c2.48,0.49 2.48,0.49 5,1c1.29,2.58 1.2,4.56 1.25,7.44c0.03,0.97 0.05,1.93 0.08,2.93c-0.33,2.63 -0.33,2.63 -1.66,4.48c-1.67,1.15 -1.67,1.15 -4.67,1.15c0,-5.61 0,-11.22 0,-17z" fill="#ffffff" id="svg_40" transform="matrix(1 0 0 1 0 0)"/>
  <path d="m228,352c2.48,0.49 2.48,0.49 5,1c1.22,2.44 1.2,4.15 1.25,6.88c0.03,0.86 0.05,1.72 0.08,2.61c-0.4,3.01 -1.2,4.37 -3.33,6.51c-0.99,0 -1.98,0 -3,0c0,-5.61 0,-11.22 0,-17z" fill="#ffffff" id="svg_41" transform="matrix(1 0 0 1 0 0)"/>
  <path d="m106,352c2.48,0.49 2.48,0.49 5,1c1.59,3.19 1.39,6.53 1,10c-1.31,2.5 -1.31,2.5 -3,4c-0.99,0 -1.98,0 -3,0c0,-4.95 0,-9.9 0,-15z" fill="#ffffff" id="svg_42" transform="matrix(1 0 0 1 0 0)"/>
  <path d="m355,361c0.33,0 0.66,0 1,0c2.3,13.63 2.3,13.63 2,20c-1.98,0 -3.96,0 -6,0c0.55,-6.79 1.54,-13.35 3,-20z" fill="#ffffff" id="svg_43" transform="matrix(1 0 0 1 0 0)"/>
 </g>
</svg>